<svg width="512" height="512" viewBox="0 0 1024 1024" fill="none" xmlns="http://www.w3.org/2000/svg">
	<rect fill="#0a84ff" width="1024" height="1024" x="0" y="0"/>
	<g transform="translate(154 154) scale(0.70)">
		<circle fill="#ffffff" cx="427" cy="877" r="62"/>
		<circle fill="#ffffff" cx="739" cy="877" r="62"/>
		<path fill="#ffffff" d="m 167.5,84.8 c -24.4,0.1 -48.8,0.1 -73.3,0.8 -6.0,0.2 -12.3,0.3 -18.1,2.4 -5.0,2.0 -9.4,5.3 -13.2,9.1 -4.9,5.3 -7.4,12.6 -7.6,19.8 -0.4,7.0 -0.0,14.3 2.8,20.8 3.1,6.9 9.2,12.1 16.0,15.5 3.7,1.9 7.9,2.6 12.1,2.9 11.2,1.0 22.6,0.9 33.9,1.2 24.0,0.4 48.1,0.7 72.1,1.0 26.9,111.0 53.6,222.1 80.5,333.1 10.5,43.6 21.0,87.2 31.8,130.8 0.9,3.8 1.9,7.6 2.8,11.4 -11.2,8.5 -19.6,20.2 -25.8,32.7 -6.5,13.1 -10.2,27.8 -9.9,42.6 0.3,25.6 11.6,51.1 30.8,68.2 7.9,7.1 17.2,12.6 27.1,16.6 7.3,3.0 14.8,5.6 22.7,6.7 22.1,0.4 44.3,0.3 66.5,0.5 91.3,0.3 182.7,0.4 274.1,0.4 34.5,-0.0 69.0,0.1 103.5,-0.7 8.7,-0.3 17.5,-0.6 26.2,-2.1 5.3,-1.0 10.5,-3.4 13.9,-7.7 3.7,-3.9 7.4,-8.4 8.5,-13.9 1.3,-5.5 1.5,-11.2 1.4,-16.8 -0.2,-5.1 -2.3,-10.1 -5.3,-14.3 -2.1,-3.8 -4.3,-8.0 -8.4,-10.2 -5.8,-3.5 -12.8,-3.9 -19.4,-4.6 -14.3,-1.2 -28.7,-1.2 -43.1,-1.5 -36.8,-0.5 -73.6,-0.5 -110.4,-0.6 -87.5,-0.3 -175.0,-0.4 -262.5,-1.3 -11.0,-0.1 -22.1,-0.3 -33.2,-0.6 -2.7,-0.1 -5.7,-0.1 -8.6,-0.3 -0.9,0.0 -1.8,-0.0 -2.4,-0.9 -3.0,-2.6 -5.7,-5.7 -7.8,-9.2 -1.0,-2.9 -1.1,-6.1 -1.1,-9.2 0.2,-6.7 3.9,-13.1 9.4,-16.9 2.3,-1.7 5.0,-3.0 7.5,-4.6 29.2,-0.0 58.5,-0.1 87.8,-0.2 100.0,-0.3 200.0,-0.6 300.0,-1.1 20.5,-0.1 41.0,-0.2 61.5,-0.9 4.9,-0.2 10.0,-0.4 14.8,-1.6 4.3,-1.4 8.0,-4.4 11.3,-7.5 3.5,-3.4 5.9,-7.8 7.5,-12.4 3.1,-8.5 4.9,-17.5 7.1,-26.4 8.5,-36.8 17.1,-73.7 25.6,-110.6 18.1,-79.4 36.1,-159.0 54.4,-238.4 2.7,-12.2 5.8,-24.5 8.1,-36.8 0.8,-5.1 1.8,-10.4 0.7,-15.6 -1.9,-10.2 -8.3,-19.4 -16.8,-25.3 -3.9,-2.6 -8.5,-4.5 -13.4,-4.5 -26.4,-0.7 -52.8,-0.7 -79.2,-0.9 -106.3,-0.5 -212.7,-0.4 -319.1,-0.4 -61.3,-0.0 -122.6,-0.0 -183.9,-0.3 -16.2,-0.1 -32.4,-0.1 -48.6,-0.8 -0.7,-0.2 -2.1,0.3 -2.1,-0.7 -6.5,-25.9 -12.6,-51.9 -19.3,-77.8 -1.8,-6.6 -3.6,-13.4 -7.1,-19.4 -4.2,-6.9 -10.8,-12.4 -18.3,-15.5 -5.4,-2.0 -11.3,-1.6 -17.0,-2.0 -15.1,-0.5 -30.2,-0.4 -45.4,-0.4 -0.6,0 -1.3,0 -2.0,0 z"/>
		<!-- <path fill="#0a84ff" d="m 295.0,275.6 h 565.2 l -77.2,336.6 -405.5,0.3 z"/> -->
		<!-- <path fill="#ffffff" d="M 497.9,396.5 552.8,451.1 668.2,326.0 719.7,375.0 554.2,554.8 448.6,446.4 Z"/> -->
		<path fill="#0a84ff" d="m 443.0,368.6 89.8,89.3 188.8,-204.8 84.3,80.2 L 535.1,627.6 362.4,450.2 Z"/>
	</g>
</svg>
