<svg width="512" height="512" viewBox="0 0 1024 1024" xmlns="http://www.w3.org/2000/svg">
	<g transform="translate(256 256) scale(0.5)">
    <circle fill="#000000" cx="427" cy="877" r="62"/>
    <circle fill="#000000" cx="739" cy="877" r="62"/>
    <path fill="#000000" d="m 167.5,84.796875 c -24.39998,0.1 -48.7969,0.104688 -73.296875,0.804687 -5.999994,0.2 -12.301568,0.29844 -18.101563,2.398438 -4.999995,1.999998 -9.403128,5.301566 -13.203124,9.101562 -4.899996,5.299998 -7.401563,12.596878 -7.601563,19.796878 -0.4,6.99999 0.0047,14.30469 2.804687,20.80468 3.099997,6.9 9.200007,12.10001 16,15.5 3.699997,1.9 7.901567,2.59844 12.101563,2.89844 11.199989,1 22.598445,0.89532 33.898435,1.19532 23.99998,0.39999 48.10159,0.7 72.10156,1 26.89998,110.99988 53.60003,222.10167 80.5,333.10156 10.49999,43.59995 20.99689,87.20473 31.79688,130.80468 0.9,3.8 1.89688,7.59845 2.79688,11.39844 -11.19999,8.49999 -19.59689,20.19533 -25.79688,32.69532 -6.49999,13.09998 -10.19844,27.80157 -9.89844,42.60156 0.3,25.59997 11.5969,51.10314 30.79688,68.20312 7.89999,7.1 17.20157,12.60157 27.10156,16.60156 7.29999,3 14.80313,5.59532 22.70312,6.69532 22.09998,0.4 44.30003,0.3 66.5,0.5 91.29991,0.3 182.69385,0.39844 274.09376,0.39844 34.49996,0 69.00003,0.10468 103.5,-0.69532 8.69999,-0.3 17.50313,-0.60156 26.20312,-2.10156 5.29999,-1 10.49844,-3.40313 13.89844,-7.70312 3.69999,-3.9 7.4,-8.39845 8.5,-13.89844 1.3,-5.5 1.49843,-11.19688 1.39844,-16.79688 -0.2,-5.09999 -2.29688,-10.10469 -5.29688,-14.30468 -2.1,-3.8 -4.29844,-7.99532 -8.39844,-10.19532 C 826.80157,732.10157 819.80312,731.7 813.20312,731 c -14.29998,-1.2 -28.70157,-1.2 -43.10156,-1.5 -36.79996,-0.5 -73.59847,-0.50156 -110.39844,-0.60156 -87.49991,-0.3 -175.00008,-0.39688 -262.5,-1.29688 C 386.20314,727.50156 375.09999,727.3 364,727 c -2.7,-0.1 -5.70157,-0.0969 -8.60156,-0.29688 -0.9,0 -1.79844,-0.006 -2.39844,-0.90624 -3,-2.6 -5.69688,-5.69532 -7.79688,-9.19532 -0.99999,-2.89999 -1.10156,-6.10313 -1.10156,-9.20312 0.2,-6.7 3.89845,-13.09844 9.39844,-16.89844 2.3,-1.7 5,-3.00156 7.5,-4.60156 29.19997,0 58.4969,-0.0953 87.79688,-0.19532 99.9999,-0.29999 200.00009,-0.60156 300,-1.10156 20.49997,-0.1 41.00002,-0.19844 61.5,-0.89844 4.89999,-0.19999 10.00469,-0.40156 14.80468,-1.60156 4.3,-1.4 7.99688,-4.4 11.29688,-7.5 3.49999,-3.39999 5.9,-7.79844 7.5,-12.39844 C 846.99843,653.70313 848.8,644.69687 851,635.79688 859.49999,598.99691 868.10157,562.10309 876.60156,525.20312 894.70154,445.8032 912.70002,366.1968 931,286.79688 c 2.7,-12.19999 5.80156,-24.49689 8.10156,-36.79688 0.8,-5.09999 1.79531,-10.40157 0.69532,-15.60156 -1.9,-10.19999 -8.29689,-19.39688 -16.79688,-25.29688 -3.9,-2.59999 -8.49844,-4.5 -13.39844,-4.5 -26.39997,-0.7 -52.80315,-0.69844 -79.20312,-0.89844 -106.2999,-0.49999 -212.70167,-0.40624 -319.10156,-0.40624 -61.29994,0 -122.5985,0.003 -183.89844,-0.29688 -16.19999,-0.1 -32.40158,-0.0969 -48.60156,-0.79688 -0.7,-0.19999 -2.09375,0.29688 -2.09376,-0.70312 -6.49999,-25.89997 -12.60469,-51.8969 -19.30468,-77.79688 -1.8,-6.59999 -3.60157,-13.40625 -7.10156,-19.40624 -4.2,-6.899998 -10.79689,-12.400008 -18.29688,-15.500005 -5.39999,-1.999998 -11.30001,-1.6 -17,-2 -15.09998,-0.499999 -30.19845,-0.398438 -45.39844,-0.398437 h -2 z M 721.60156,253.10156 805.89844,333.29688 535.10156,627.60156 362.39844,450.20312 443,368.60156 l 89.79688,89.29688 z"/>
  </g>
</svg>
