<svg width="512" height="512" viewBox="0 0 1024 1024" fill="#436D5D" xmlns="http://www.w3.org/2000/svg">
	<rect width="1024" height="1024" fill="#436D5D"/>
	<path fill="white" d="m 329,572 c -4.4,-0.1 -8.4,3.0 -9.9,7.0 -0.3,0.8 -0.4,1.7 -1.0,2.4 -4.0,5.8 -8.5,11.3 -13.0,16.8 -6.0,7.2 -12.3,14.3 -19.3,20.5 -16.6,15.0 -36.3,26.9 -57.7,33.6 -1.5,0.5 -2.9,0.9 -4.3,1.3 -3.4,1.0 -7.0,1.8 -10.4,2.5 -1.9,0.4 -3.6,0.7 -5.5,1.0 -3.7,0.6 -7.4,1.0 -11.0,1.3 -5.8,0.5 -11.6,0.5 -17.4,0.3 -1.6,-0.1 -3.5,-0.2 -5.2,-0.3 -2.7,-0.2 -5.6,-0.6 -8.4,-1.0 -20.0,-2.9 -39.4,-10.0 -56.6,-20.7 -7.8,-4.7 -15.3,-9.8 -22.4,-15.6 -3.2,-2.4 -6.6,-4.9 -10.7,-5.3 -3.3,-0.2 -6.8,1.3 -8.6,4.0 -2.7,3.1 -4.9,6.6 -7.3,10.0 -14.6,20.9 -28.8,42.2 -43.2,63.3 -1.5,2.2 -3.0,4.4 -4.5,6.7 7.3,6.3 14.4,12.9 22.5,18.2 11.5,7.9 23.5,15.3 35.9,21.9 19.5,10.1 40.4,17.5 61.9,22.2 33.1,7.2 67.8,7.6 101.1,0.9 32.1,-6.3 62.8,-19.1 90.3,-36.9 15.9,-10.2 30.8,-21.9 44.5,-35.0 8.6,-8.5 16.9,-17.3 24.4,-26.8 2.0,-2.6 4.0,-5.5 4.0,-8.9 -0.0,-3.7 -2.0,-7.1 -4.7,-9.5 -4.7,-4.8 -10.6,-8.2 -15.5,-12.9 -9.3,-8.4 -17.5,-18.1 -24.4,-28.6 -0.9,-1.5 -2.0,-3.2 -3.0,-4.8 -3.1,-5.2 -5.6,-10.9 -8.0,-16.5 -1.6,-3.6 -3.8,-7.4 -7.4,-9.5 -1.5,-0.8 -3.2,-1.3 -5.0,-1.3 z" />
	<path fill="white" d="m 373,244 c -35.3,0.4 -70.5,9.4 -102.1,25.3 -35.7,17.9 -67.1,43.9 -92.4,74.7 -14.6,17.8 -27.1,37.3 -37.4,57.9 -2.5,4.8 -5.0,9.7 -7.5,14.6 31.3,15.1 62.5,30.6 94.0,45.2 1.1,0.5 2.2,1.0 3.3,1.5 2.0,-4.0 3.9,-8.0 5.8,-12.1 0.7,-1.4 1.5,-3.1 2.3,-4.6 2.4,-4.6 5.3,-8.9 8.2,-13.3 4.5,-6.8 9.3,-13.5 14.4,-20.0 8.0,-10.1 17.3,-19.4 27.4,-27.6 5.0,-4.0 10.2,-7.9 15.7,-11.3 0.7,-0.4 1.5,-0.9 2.3,-1.4 15.1,-9.2 31.9,-16.0 49.5,-18.8 7.1,-1.0 14.4,-1.0 21.6,-1.0 5.2,0.0 10.4,0.3 15.7,0.6 3.8,0.3 7.9,0.6 11.7,1.5 3.4,0.7 6.7,1.7 10.0,2.7 -7.3,18.4 -15.1,36.6 -22.7,54.9 -9.0,21.7 -18.2,43.5 -27.2,65.3 -4.1,10.2 -8.2,20.5 -11.7,31.0 -2.1,7.4 -2.6,15.3 -2.9,23.1 -0.1,8.9 0.2,17.8 1.9,26.6 1.5,7.6 4.2,15.0 7.2,22.1 5.9,13.5 14.5,26.1 25.6,36.0 5.7,5.2 12.2,9.5 18.9,13.4 13.8,8.1 28.4,15.1 42.0,23.7 9.4,5.8 18.5,12.3 27.1,19.5 7.6,6.4 15.2,13.3 22.2,20.6 13.0,13.7 24.5,28.8 34.8,44.8 2.3,3.6 4.6,7.5 6.7,11.2 3.0,5.2 5.7,10.7 8.0,16.3 3.2,7.5 6.4,15.3 9.2,23.1 1.0,2.8 2.0,5.6 2.9,8.5 1.0,3.1 2.0,6.4 2.8,9.6 1.4,5.3 2.7,10.7 3.9,16.1 3.1,14.4 5.5,29.1 6.9,43.8 0.3,3.3 0.5,6.7 0.6,10.1 0.2,5.5 -0.1,11.3 1.1,16.8 1.0,4.0 4.8,7.2 9.0,7.4 3.6,0.4 7.2,0.2 10.9,0.4 22.3,0.3 44.7,-0.0 67.0,-0.1 7.3,-0.0 14.7,-0.1 22.0,-0.1 -0.5,-16.0 -0.6,-32.1 -2.5,-48.1 -2.8,-26.8 -8.0,-53.5 -15.4,-79.5 -5.2,-17.8 -11.8,-35.3 -19.7,-52.1 -10.0,-21.7 -21.7,-42.6 -35.6,-62.1 -12.2,-17.1 -26.1,-33.1 -41.0,-48.0 -9.5,-9.5 -19.5,-18.8 -30.0,-27.4 -14.3,-11.7 -29.8,-22.1 -45.7,-31.6 -1.2,-0.7 -2.5,-1.4 -3.7,-2.2 3.0,-8.1 6.3,-16.1 9.6,-24.1 8.2,-20.0 16.7,-39.9 25.0,-59.9 10.1,-24.1 20.1,-48.2 29.5,-72.6 1.5,-4.1 2.8,-8.3 3.4,-12.7 1.2,-7.9 1.5,-16.0 1.1,-24.0 -0.5,-9.2 -2.3,-18.3 -5.6,-26.9 -4.1,-11.0 -10.5,-21.2 -18.7,-29.8 -10.6,-11.2 -23.8,-19.6 -37.5,-26.7 -10.9,-5.6 -22.2,-10.5 -33.8,-14.8 -27.6,-10.1 -57.0,-16.0 -86.5,-15.8 -0.7,0 -1.4,0 -2.2,0 z" />
	<circle fill="white" r="80" cy="204" cx="572"/>
	<path fill="white" d="m 697,367 142,145 -142,143 -54,-52 91,-91 -91,-91 z"/>
	<path fill="white" d="m 859,367 142,145 -142,143 -54,-52 91,-91 -91,-91 z"/>
</svg>
