<svg width="512" height="512" viewBox="0 0 1024 1024" fill="#436D5D" xmlns="http://www.w3.org/2000/svg">
	<!-- <rect fill="#000000" width="1024" height="1024" x="0" y="0"/> -->
	<path fill="#c3daf2" d="M 352.88867,605.51172 78.394531,795.16992 A 512,512 0 0 0 443.64453,1020.1562 L 407.2207,662.08398 Z"/>
	<path fill="#186bc7" d="M 429.00206,1018.4778 C 379.6267,1006.9456 336.3611,965.26856 321.02567,914.46595 301.73576,850.56398 324.15444,764.74052 380.5971,686.41332 l 19.6872,-27.32052 -24.00897,-23.93664 -24.00871,-23.93637 -44.96116,44.78055 c -24.72856,24.62924 -59.98369,56.28943 -78.34475,70.35564 -36.95839,28.31351 -100.80244,60.19784 -131.331266,65.58795 L 77.853623,795.43564 50.753046,740.04882 C 8.2513421,653.18624 0,615.90354 0,510.72387 0,407.47859 8.3470984,368.26771 47.337628,288.35383 114.02803,151.66706 234.63126,52.497406 383.48605,11.945702 422.67375,1.2699502 440.65707,-0.32845406 517.33023,0.04911746 597.27763,0.44302542 610.49529,1.878734 653.04612,14.792939 799.6829,59.297313 913.82534,156.33932 978.72181,291.67727 c 37.19559,77.56926 45.21819,116.85577 45.27709,221.72252 0.043,83.77923 -1.0977,94.70447 -14.4535,137.98315 -70.43718,228.23996 -269.01208,374.89896 -504.48389,372.59016 -30.1581,-0.2954 -64.38475,-2.7685 -76.05945,-5.4953 z"/>
	<path fill="#ffffff" d="m 580.07712,705.67102 c 27.80438,-22.29612 53.02047,-46.98198 56.03564,-54.85747 3.01496,-7.87532 4.77258,-31.46865 3.9054,-52.42954 l -1.57644,-38.11047 37.87825,-40.43745 c 63.16946,-67.43759 96.1457,-145.39849 102.36817,-242.01367 4.10688,-63.76663 3.11898,-64.63242 -63.86946,-55.97141 -94.04822,12.15952 -172.72413,50.62862 -234.30435,114.56454 l -33.8621,35.15758 h -41.77475 c -34.47987,0 -44.31001,1.9884 -56.29269,11.38526 -17.93709,14.06704 -83.55623,100.08714 -83.55623,109.5339 0,9.9169 4.64863,11.73619 46.05493,18.02403 64.87678,9.85197 61.87744,8.14877 57.91036,32.88338 -3.43146,21.39355 -2.84597,22.3942 36.18939,61.84074 39.04405,39.4552 40.03517,40.04846 62.09965,37.16863 25.23315,-3.29327 22.17397,-8.73662 34.2327,60.90946 3.30553,19.09183 7.15088,36.5525 8.54514,38.80161 6.21773,10.03038 22.85465,1.36945 70.01639,-36.44912 z"/>
	<circle fill="#186bc7" cx="622.3" cy="380.9" r="50"/>
</svg>
